<svg width="2807" height="1604" viewBox="0 0 2807 1604" fill="none" xmlns="http://www.w3.org/2000/svg">
<g clipPath="url(#clip0_106_3)">
<path d="M2806.24 0H0V1603.57H2806.24V0Z" fill="#FAFAFA"/>
<mask id="mask0_106_3" style="mask-type:luminance" maskUnits="userSpaceOnUse" x="0" y="0" width="2807" height="1604">
<path d="M2806.24 0H0V1603.57H2806.24V0Z" fill="white"/>
</mask>
<g mask="url(#mask0_106_3)">
<path d="M2805.56 1142.49C2706.11 1142.49 2602.06 1100.69 2496.05 1018.13C2444.15 977.706 2395.94 931.385 2349.32 886.588C2313.24 851.922 2275.93 816.075 2237.19 783.228C2129.13 691.621 2028.4 642.681 1929.24 633.608C1795.83 621.382 1670.37 681.811 1549.09 740.234C1445.35 790.212 1338.07 841.89 1223.96 850.242C1049.77 863.044 887.473 774.909 751.678 687.059C729.623 672.791 707.259 657.955 685.629 643.608C567.565 565.289 445.484 484.307 307.27 450.518C149.497 411.937 -52.9119 452.13 -134.517 603.547L-139.421 600.904C-56.4679 446.997 148.725 406.029 308.597 445.108C447.752 479.13 570.247 560.387 688.707 638.966C710.326 653.304 732.68 668.132 754.702 682.381C889.719 769.731 1050.94 857.306 1223.56 844.689C1336.61 836.413 1443.4 784.967 1546.67 735.217C1668.63 676.46 1794.72 615.729 1929.75 628.061C2030.08 637.242 2131.83 686.606 2240.79 778.98C2279.67 811.939 2317.04 847.848 2353.18 882.574C2399.7 927.27 2447.8 973.488 2499.47 1013.73C2608.59 1098.72 2715.51 1140.08 2817.08 1136.73C2923.24 1133.2 3048.6 1064.06 3071.81 942.851L3077.28 943.901C3053.52 1067.94 2925.58 1138.7 2817.26 1142.29C2813.37 1142.42 2809.47 1142.49 2805.56 1142.49Z" fill="#05BAFF"/>
</g>
<mask id="mask1_106_3" style="mask-type:luminance" maskUnits="userSpaceOnUse" x="0" y="0" width="2807" height="1604">
<path d="M2806.24 0H0V1603.57H2806.24V0Z" fill="white"/>
</mask>
<g mask="url(#mask1_106_3)">
<path d="M550.579 926.537C520.113 926.537 489.44 924.267 458.718 919.284C373.285 905.424 291.865 871.301 213.126 838.301C198.858 832.323 184.595 826.347 170.328 820.491C77.6091 782.454 -22.0919 747.836 -123.131 752.088C-234.408 756.78 -331.564 813.86 -370.654 897.509L-375.7 895.149C-335.74 809.643 -236.692 751.301 -123.37 746.524C-21.3199 742.231 79.1311 777.055 172.438 815.34C186.728 821.199 200.995 827.18 215.274 833.167C293.72 866.039 374.83 900.031 459.611 913.785C676.538 948.984 892.616 847.481 1036.26 768.07C1079.29 744.284 1122.6 718.85 1164.48 694.254C1295.45 617.342 1430.87 537.811 1578.94 496.01C1813.14 429.891 2077.58 465.117 2286.29 590.233C2339.5 622.132 2389.95 659.958 2438.72 696.538C2474.07 723.043 2510.62 750.45 2547.9 775.37C2655.75 847.427 2752.15 883.412 2842.6 885.383C2956.95 887.906 3063.69 827.132 3102.48 737.681L3107.59 739.894C3067.93 831.371 2958.79 893.36 2842.48 890.952C2750.93 888.956 2653.56 852.664 2544.82 779.998C2507.4 754.996 2470.79 727.543 2435.38 700.992C2386.72 664.499 2336.39 626.76 2283.43 595.008C2076 470.67 1813.21 435.658 1580.45 501.367C1433.08 542.977 1297.97 622.323 1167.3 699.056C1125.39 723.669 1082.05 749.121 1038.96 772.943C914.871 841.542 736.947 926.531 550.579 926.537Z" fill="#B5F6FF"/>
</g>
<mask id="mask2_106_3" style="mask-type:luminance" maskUnits="userSpaceOnUse" x="0" y="0" width="2807" height="1604">
<path d="M2806.24 0H0V1603.57H2806.24V0Z" fill="white"/>
</mask>
<g mask="url(#mask2_106_3)">
<path d="M1047.13 1315.64C990.489 1315.64 936.523 1305.18 887.254 1283.81C754.689 1226.33 668.402 1098.97 601.489 981.963C591.342 964.226 581.332 946.31 571.306 928.358C513.191 824.323 453.096 716.746 362.09 639.235C211.048 510.591 -17.1881 485.019 -192.954 577.05L-195.537 572.118C-17.8081 479.056 212.979 504.922 365.7 634.994C457.467 713.157 517.812 821.177 576.167 925.642C586.183 943.577 596.188 961.477 606.317 979.201C672.784 1095.41 758.397 1221.87 889.472 1278.71C1043.44 1345.46 1244.5 1304.28 1427.27 1168.51C1508.38 1108.26 1581.6 1035.86 1652.42 965.83C1716.58 902.386 1782.92 836.783 1855.08 780.234C1941.68 712.359 2167.58 562.905 2394.26 640.935C2473.15 668.089 2541.03 720.02 2606.67 770.24L2615.11 776.694C2686.35 831.12 2757.02 881.78 2838.31 903.596C2930.37 928.295 3023.55 906.741 3075.68 848.667L3079.82 852.386C3026.31 912.003 2930.96 934.225 2836.86 908.974C2754.59 886.895 2683.43 835.897 2611.73 781.121L2603.29 774.664C2538 724.713 2470.49 673.06 2392.45 646.199C2168.39 569.068 1944.41 717.304 1858.52 784.617C1786.61 840.971 1720.38 906.46 1656.34 969.79C1585.38 1039.95 1512.01 1112.5 1430.59 1172.98C1304.5 1266.64 1169.62 1315.63 1047.13 1315.64Z" fill="#0096F9"/>
</g>
<mask id="mask3_106_3" style="mask-type:luminance" maskUnits="userSpaceOnUse" x="0" y="0" width="2807" height="1604">
<path d="M2806.24 0H0V1603.57H2806.24V0Z" fill="white"/>
</mask>
<g mask="url(#mask3_106_3)">
<path d="M1450.51 1220.52C1198.17 1220.53 981.181 1035.68 838.28 894.489C813.17 869.68 787.744 843.926 763.156 819.02C615.784 669.74 463.395 515.379 266.13 446.313C38.4369 366.595 -225.73 418.071 -406.841 577.478L-410.516 573.297C-321.549 494.99 -210.293 441.077 -88.7721 417.395C32.7329 393.71 156.103 401.893 267.968 441.059C466.451 510.552 619.303 665.378 767.12 815.109C791.697 840.004 817.107 865.746 842.195 890.532C989.028 1035.6 1214.41 1227.03 1475.14 1214.36C1608.36 1207.9 1744.37 1149.84 1903.19 1031.65C1946.09 999.716 1988.46 965.441 2029.44 932.294C2109.53 867.521 2192.34 800.545 2282.89 747.976C2375.35 694.301 2557.52 612.399 2738.75 667.083C2846.83 699.688 2937.48 776.465 3017.47 844.205L3170.44 973.774L3166.84 978.021L3013.87 848.45C2934.29 781.064 2844.11 704.681 2737.14 672.41C2557.93 618.337 2377.37 699.565 2285.68 752.792C2195.5 805.144 2112.87 871.984 2032.95 936.621C1991.92 969.803 1949.5 1004.12 1906.51 1036.11C1746.77 1155 1609.78 1213.41 1475.41 1219.92C1467.08 1220.33 1458.77 1220.52 1450.51 1220.52Z" fill="#75E2FF"/>
</g>
</g>
<defs>
<clipPath id="clip0_106_3">
<rect width="2807" height="1604" fill="white"/>
</clipPath>
</defs>
</svg>
