<svg width="708" height="372" viewBox="0 0 708 372" fill="none" xmlns="http://www.w3.org/2000/svg">
<g clip-path="url(#clip0_102_5)">
<path d="M102.404 1.6702C78.2283 4.845 54.1876 6.10274 34.2479 22.3052C14.3854 38.445 8.77119 62.974 5.18546 87.2031C-2.01943 135.887 0.113866 185.55 3.53764 234.409C5.51588 262.639 9.13718 292.413 18.1135 319.373C21.8874 330.707 25.887 342.845 36.2227 349.907C58.0468 364.818 84.8924 365.721 110.306 366.834C142.556 368.246 174.765 368.771 207.108 368.771C305.582 368.771 404.067 369.759 502.454 369.759C552.924 369.759 606.84 376.514 656.547 365.387C692.735 357.285 699.527 326.386 700.958 293.686C703.709 230.847 710.435 166.932 706.024 103.998C703.956 74.4775 698.43 40.4369 671.364 23.0752C648.706 8.54154 621.301 6.89491 595.305 5.11433C559.661 2.67289 522.294 2.67289 486.649 5.11433C451.37 7.53074 415.347 6.02086 379.969 6.1915C322.02 6.47081 264.099 6.60923 206.12 5.18829C172.472 4.36365 135.868 -2.72444 102.404 1.6702ZM105.367 15.3644C121.131 13.5041 137.981 16.3279 153.768 17.0193C182.732 18.288 211.737 18.7149 240.693 19.9832C323.389 23.6054 407.929 22.6163 490.6 18.9952C524.747 17.4996 559.183 17.4996 593.329 18.9952C616.046 19.9902 641.564 21.3859 661.486 33.6705C684.818 48.0579 690.893 77.3791 692.139 103.01C694.06 142.526 692.918 182.155 690.22 221.565C688.914 240.643 689.956 260.169 687.622 279.149C683.984 308.737 689.699 343.869 652.596 351.961C603.874 362.586 550.921 355.927 501.466 355.927C448.065 355.927 394.65 355.628 341.225 355.359C297.514 355.139 253.795 354.939 210.072 354.939C177.402 354.939 144.875 353.776 112.282 352.978C90.1734 352.436 64.1325 352.025 45.1272 339.028C36.8175 333.346 33.8032 322.564 30.9469 313.445C23.6032 289.999 21.0612 265.58 18.1607 241.324C12.475 193.776 11.9751 143.614 18.1644 96.0947C20.4955 78.1979 22.7048 54.7756 35.3385 40.7692C54.0223 20.0554 79.5556 18.4104 105.367 15.3644Z" fill="#84AC75"/>
<path d="M538.927 358.046C524.767 357.463 444.611 356.907 360.802 356.811C208.481 356.636 104.993 355.004 82.2242 352.417C56.8318 349.532 41.4171 341.916 35.0205 329.095C20.5562 300.103 9.36301 204.452 12.8781 139.877C14.5094 109.91 18.7371 74.8663 22.0627 63.7448C31.3322 32.7454 50.5241 20.6287 99.1815 15.0564C110.506 13.7594 119.584 13.7507 139.538 15.0172C226.415 20.532 382.247 22.1969 479.784 18.6524C544.701 16.2933 579.797 16.4913 616.16 19.422C663.062 23.2019 684.486 38.0578 693.464 73.0255C697.503 88.7599 699.443 121.822 698.496 158.829C696.629 231.842 691.792 309.879 688.307 323.232C684.28 338.658 676.57 347.27 662.817 351.704C643.966 357.783 594.29 360.326 538.927 358.046Z" fill="#FF0000"/>
</g>
<defs>
<clipPath id="clip0_102_5">
<rect width="708" height="372" fill="white"/>
</clipPath>
</defs>
</svg>
