<?xml version="1.0" encoding="UTF-8" standalone="no"?>
<!-- Created with Inkscape (http://www.inkscape.org/) -->

<svg
   width="210mm"
   height="297mm"
   viewBox="0 0 210 297"
   version="1.1"
   id="svg1"
   xmlns="http://www.w3.org/2000/svg"
   xmlns:svg="http://www.w3.org/2000/svg">
  <defs id="defs1" />
  <g id="layer1">
    <path
      d="m 37.648241,99.071525 c -6.47559,0.85024 -12.915051,1.187075 -18.256047,5.526245 -5.320309,4.32237 -6.824125,10.89146 -7.784588,17.38022 -1.9298827,13.03806 -1.358464,26.33807 -0.441381,39.42292 0.529886,7.56035 1.499876,15.53411 3.904237,22.75417 1.010869,3.03553 2.082188,6.28618 4.850695,8.17738 5.845739,3.9933 13.036519,4.23495 19.84375,4.53303 8.63835,0.37826 17.265839,0.51875 25.929167,0.51875 26.377008,0 52.756776,0.26459 79.110416,0.26459 13.51888,0 27.9607,1.8093 41.275,-1.17083 9.69324,-2.16963 11.51238,-10.44476 11.89584,-19.20209 0.73689,-16.8288 2.53828,-33.94591 1.357,-50.8 -0.55411,-7.90593 -2.03411,-17.02231 -9.28409,-21.67195 -6.06897,-3.89223 -13.40963,-4.33321 -20.37291,-4.810065 -9.54761,-0.653839 -19.55656,-0.653839 -29.10417,0 -9.44978,0.647135 -19.09874,0.242775 -28.575,0.288475 -15.522237,0.0748 -31.036746,0.11187 -46.566669,-0.26867 -9.013072,-0.220845 -18.817577,-2.119098 -27.78125,-0.942175 m 0.79375,3.667425 c 4.222445,-0.4982 8.735973,0.25803 12.964583,0.44321 7.758195,0.33976 15.527339,0.45409 23.283334,0.79375 22.150901,0.97005 44.795332,0.70517 66.939582,-0.26458 9.14644,-0.40055 18.37023,-0.40055 27.51667,0 6.08493,0.26647 12.91988,0.64023 18.25625,3.93017 6.24976,3.85306 7.87696,11.70555 8.21066,18.56983 0.51447,10.58252 0.20871,21.1956 -0.51407,31.75 -0.34988,5.1091 -0.0706,10.33833 -0.69576,15.42137 -0.9746,7.92405 0.55612,17.3328 -9.38208,19.49975 -13.05066,2.84559 -27.23443,1.06221 -40.48125,1.06221 -14.3038,0 -28.61133,-0.08 -42.92159,-0.15207 -11.708533,-0.0589 -23.418887,-0.11251 -35.130496,-0.11251 -8.750705,0 -17.463324,-0.31141 -26.19375,-0.5253 -5.921849,-0.14507 -12.897085,-0.25517 -17.987787,-3.73581 -2.225809,-1.52183 -3.033203,-4.40918 -3.798283,-6.85139 -1.967087,-6.27917 -2.647979,-12.81867 -3.424884,-19.31459 -1.522953,-12.73382 -1.656849,-26.1676 0.001,-38.89375 0.624384,-4.79291 1.216162,-11.06562 4.6002,-14.81666 5.004575,-5.54733 11.843836,-5.98788 18.757651,-6.80363 z"
      style="fill:#84ac75;stroke:none"
      id="path1" 
    />
    <path
       style="fill:#ff0000;stroke-width:0.36803"
       d="m 153.41352,194.01551 c -3.7447,-0.15461 -24.94322,-0.30197 -47.10781,-0.32746 -40.283534,-0.0463 -67.652692,-0.47909 -73.674191,-1.16492 -6.715436,-0.76487 -10.792079,-2.78411 -12.483762,-6.18344 -3.825316,-7.68673 -6.785517,-33.04721 -5.855886,-50.16822 0.431409,-7.94525 1.549479,-17.23661 2.428985,-20.1853 2.451484,-8.21902 7.527083,-11.43157 20.395263,-12.90897 2.995055,-0.34387 5.395865,-0.3462 10.672863,-0.0104 22.975898,1.46217 64.188258,1.9036 89.983268,0.96383 17.16841,-0.62549 26.44998,-0.57298 36.06692,0.20404 12.40394,1.00219 18.06988,4.94099 20.44411,14.21214 1.06833,4.17174 1.58115,12.93766 1.33088,22.74938 -0.49378,19.35838 -1.77291,40.04854 -2.6948,43.5889 -1.06501,4.09001 -3.10391,6.37328 -6.74116,7.54911 -4.98538,1.61165 -18.1231,2.28581 -32.76468,1.68129 z"
       id="path2" 
      />
    <path
      style="fill:#000000;stroke-width:0.264583"
      id="path3"
      d="m 20.088959,156.35679 c -0.04433,-1.08915 -0.04404,-2.17954 -0.05166,-3.2694 -0.01196,-1.44578 -0.0011,-2.89161 0.0045,-4.3374 -0.0049,-1.18421 0.0064,-2.36841 0.01667,-3.55256 -0.01548,-0.84798 0.02488,-1.69361 0.08407,-2.53905 0.08718,-0.8786 0.236309,-1.74914 0.369506,-2.62159 0.174105,-0.94275 0.28519,-1.89332 0.409072,-2.84326 0.121349,-0.8804 0.277702,-1.75426 0.356949,-2.63996 0.0779,-0.82495 0.23571,-1.63817 0.331926,-2.4608 0.143324,-0.9582 0.269974,-1.91696 0.367979,-2.88096 0.187316,-1.38493 0.368551,-2.77037 0.550837,-4.15597 0.189793,-1.2389 0.371463,-2.4794 0.590389,-3.71359 0.205429,-1.13088 0.556198,-2.22649 0.929835,-3.3109 0.306122,-1.02743 0.685835,-2.02774 1.080761,-3.02344 0.373437,-0.94128 0.870181,-1.82314 1.35055,-2.71192 0.435798,-0.72505 0.930852,-1.42452 1.538335,-2.01747 0.297058,-0.28995 0.692581,-0.6022 1.013756,-0.86507 0.800328,-0.64863 1.688005,-1.15862 2.614835,-1.5988 0.71487,-0.35479 1.482627,-0.58012 2.245887,-0.80312 0.719812,-0.17745 1.451588,-0.31284 2.184852,-0.42289 0.732671,-0.0912 1.472065,-0.0977 2.209239,-0.10787 0.925624,-0.006 1.851255,-0.008 2.776889,-0.0111 1.247437,0.009 2.494857,-0.0243 3.741793,0.0145 1.621462,0.0967 3.244647,0.11272 4.868365,0.12103 2.222672,0.0113 4.445376,0.01 6.668064,0.0186 1.89688,-0.0195 3.791754,0.0343 5.687361,0.0926 2.402989,0.074 4.807355,0.0538 7.211121,0.062 2.620748,0.009 5.241504,0.0146 7.862261,0.0197 2.331095,0.005 4.662196,0.003 6.993291,2.7e-4 2.601961,-0.003 5.203857,-0.0115 7.80582,-0.0113 2.549099,0.046 5.097394,0.11498 7.644844,0.21576 2.780414,0.0947 5.562014,0.11034 8.342894,0.19075 2.65175,0.0878 5.30475,0.12311 7.95774,0.14275 2.58399,0.007 5.16806,0.0203 7.752,7.9e-4 3.15942,-0.01 6.3188,-0.022 9.47822,-0.01 2.54981,0.0601 5.09891,0.13763 7.64921,0.17536 2.4263,0.0259 4.85275,0.0263 7.27915,0.0328 2.36668,0.0544 4.72753,-0.047 7.08236,-0.27749 1.83003,-0.16693 3.65264,-0.40011 5.46451,-0.70555 1.54777,-0.2613 3.11415,-0.36935 4.68079,-0.42871 1.20741,-0.0296 2.41539,-0.0276 3.6231,-0.0331 1.18272,0.0194 2.36825,-0.031 3.54935,0.043 1.09201,0.0703 2.16252,0.33219 3.22445,0.58376 1.02236,0.1991 2.03297,0.44975 3.03506,0.73267 0.81612,0.2547 1.6086,0.59016 2.38971,0.93816 1.04468,0.48588 4.09301,2.25318 -0.24205,-0.22699 1.00975,0.63074 1.98052,1.31973 2.95511,2.00257 0.72775,0.47911 1.43662,0.9848 2.14062,1.4978 0.71525,0.56399 1.43652,1.12078 2.14671,1.69109 0.8458,0.68435 1.60878,1.44975 2.27658,2.3073 0.66489,0.87226 1.10424,1.88119 1.52798,2.88489 0.41117,1.06284 0.72865,2.15553 1.03424,3.25208 0.34729,1.22858 0.66575,2.4669 0.92782,3.71663 0.31985,1.40562 0.42033,2.84321 0.47599,4.27942 0.0375,1.18134 0.0247,2.36342 0.0366,3.54512 -0.007,1.46495 -0.13585,2.92358 -0.21621,4.38504 -0.0587,1.90655 -0.28436,3.80143 -0.51201,5.69356 -0.22386,1.78437 -0.62581,3.5389 -1.01854,5.29178 -0.40968,1.74293 -0.75438,3.49987 -1.17203,5.24101 -0.29408,1.49397 -0.64905,2.97353 -1.00978,4.45228 -0.3158,1.2669 -0.59345,2.54192 -0.85208,3.82151 -0.20224,1.08071 -0.32711,2.17473 -0.45747,3.26608 -0.14221,1.17595 -0.21549,2.35851 -0.31583,3.53845 -0.0598,1.35273 -0.13442,2.70409 -0.22124,4.05534 -0.0936,1.26904 -0.17545,2.54016 -0.31783,3.80481 -0.18011,1.39554 -0.40889,2.78762 -0.7959,4.14158 -0.34358,1.19843 -0.94732,2.28519 -1.70154,3.26968 -0.72428,0.92964 -1.61744,1.67753 -2.58044,2.3441 -1.08093,0.67474 -2.25098,1.18986 -3.43212,1.66042 -1.50714,0.57485 -3.04871,1.03811 -4.62254,1.38691 -1.85273,0.38092 -3.72561,0.64783 -5.59035,0.9603 -2.50101,0.44024 -5.0333,0.62218 -7.56632,0.7455 -2.86088,0.0837 -5.71787,0.25498 -8.57794,0.3601 -2.70181,0.0869 -5.40521,0.1037 -8.10819,0.11213 -2.54253,0.05 -5.08462,0.11429 -7.62747,0.14613 -2.46879,0.0259 -4.93772,0.0262 -7.40659,0.035 -2.62091,0.004 -5.24182,0.005 -7.86273,-0.004 -2.10355,-0.0141 -4.20714,-0.0177 -6.31074,-0.0132 -2.05013,5.3e-4 -4.10024,-0.003 -6.15038,-5.3e-4 -2.29051,0.005 -4.58106,0.0116 -6.87158,0.009 -2.44063,0.004 -4.881267,0.001 -7.321898,0.004 -2.491086,-2e-4 -4.982172,0.002 -7.473259,-0.002 -2.246648,1.7e-4 -4.493302,-0.0175 -6.739927,-0.005 -2.111502,0.002 -4.222991,-0.007 -6.334482,-0.0122 -1.76022,0.007 -3.5204,-0.004 -5.280578,-0.0144 -1.299681,-0.004 -2.59937,-0.007 -3.899059,-0.007 -1.563719,0.001 -3.126189,-0.0856 -4.686956,-0.17434 -1.932434,-0.10252 -3.867578,-0.13881 -5.802328,-0.16273 -1.938819,-0.0137 -3.877702,-0.009 -5.81655,-0.0113 -1.906836,0.0391 -3.80946,-0.0802 -5.711391,-0.19746 -1.621118,-0.0893 -3.238206,-0.24461 -4.851773,-0.42269 -1.495075,-0.14729 -2.958877,-0.44542 -4.406484,-0.83906 -1.312357,-0.3849 -2.645212,-0.72547 -3.878929,-1.32546 -1.623526,-0.94175 0.895352,0.52587 1.324438,0.70161 0.232206,0.0951 -0.391486,-0.31475 -0.574636,-0.48627 -0.546383,-0.5117 -0.978379,-1.10237 -1.408419,-1.71018 -0.536406,-0.78328 -0.928952,-1.65008 -1.433237,-2.45263 -0.224063,-0.37476 -0.451319,-0.74396 -0.703694,-1.10034 -0.183685,-0.26238 -0.417859,-0.48299 -0.603451,-0.74292 -0.239747,-0.23702 -0.382307,-0.51953 -0.513202,-0.82477 -0.19199,-0.42619 -0.306417,-0.88179 -0.424209,-1.33285 -0.138971,-0.50968 -0.264632,-1.02356 -0.377896,-1.53961 -0.117858,-0.77173 -0.199319,-1.55041 -0.268099,-2.32832 -0.125419,-1.0725 -0.308389,-2.1381 -0.481558,-3.2039 -0.169492,-1.14174 -0.346652,-2.28136 -0.445345,-3.43178 -0.101421,-0.84692 -0.183046,-1.69474 -0.224176,-2.54675 -0.0278,-0.71901 -0.02571,-1.43872 -0.0318,-2.15813 0.0046,-0.69897 3.7e-4,-1.39795 0.0041,-2.09692 -0.0013,-0.64473 0.0068,-1.28946 0.0027,-1.93418 1.35e-4,-0.59055 0.0024,-1.18108 0.005,-1.77162 -0.0099,-0.63002 -0.0038,-1.26007 -0.0031,-1.89012 -0.0074,-0.64609 -0.01387,-1.28975 0.04379,-1.93362 0.107253,-0.7547 0.215281,-1.50922 0.310538,-2.26556 0.138649,-0.8548 0.245998,-1.71373 0.420742,-2.56226 0.159297,-0.68903 0.283708,-1.38535 0.419919,-2.07909 0.178459,-0.78126 0.278436,-1.57387 0.390706,-2.36592 0.110832,-0.92402 0.269312,-1.8409 0.399408,-2.76228 0.120594,-1.08121 0.246663,-2.16145 0.328276,-3.24646 0.04401,-0.82184 0.145627,-1.63891 0.203234,-2.45978 0.06119,-0.68363 0.195255,-1.35847 0.325853,-2.03161 0.114515,-0.65837 0.15366,-1.32558 0.193117,-1.99156 0,0 -2.556546,-1.3227 -2.556546,-1.3227 v 0 c -0.0423,0.64789 -0.08594,1.29771 -0.215209,1.93547 -0.141429,0.68418 -0.270857,1.37281 -0.339336,2.06849 -0.0488,0.82469 -0.145622,1.64538 -0.18146,2.4706 -0.06154,1.08143 -0.175238,2.15712 -0.310537,3.2317 -0.128678,0.91936 -0.322558,1.82769 -0.417541,2.75198 -0.113031,0.78507 -0.215179,1.57029 -0.398372,2.34332 -0.14209,0.69322 -0.260371,1.39128 -0.409779,2.08319 -0.174346,0.85546 -0.270859,1.72335 -0.425352,2.58241 -0.107938,0.75596 -0.203653,1.51349 -0.335017,2.26593 -0.06366,0.651 -0.06929,1.30158 -0.061,1.95557 7.14e-4,0.62901 0.0069,1.25803 -0.003,1.88702 0.0026,0.59221 0.0049,1.18441 0.0049,1.77663 -0.0042,0.64535 0.0037,1.29071 0.0015,1.93608 0.0026,0.70007 -0.0037,1.40014 9.52e-4,2.10021 -0.0041,0.72466 0.0012,1.44938 0.03224,2.17351 0.04069,0.85866 0.109942,1.71525 0.235855,2.5661 0.108398,1.16083 0.30108,2.3081 0.465409,3.4617 0.151035,1.05479 0.328831,2.10595 0.449059,3.16492 0.05738,0.78408 0.165718,1.56262 0.220904,2.34684 0.105972,0.51943 0.236806,1.03383 0.367413,1.54724 0.111786,0.45779 0.228891,0.92374 0.397146,1.36152 0.114692,0.31949 0.219535,0.66292 0.471073,0.90309 0.22492,0.25177 -0.03044,-0.0486 0.181335,0.25268 0.12567,0.17879 0.326987,0.29275 0.425425,0.49548 0.30379,0.32099 0.513315,0.71431 0.746671,1.0865 0.555784,0.79979 0.971799,1.68197 1.509321,2.49364 0.312516,0.45454 0.525156,0.78528 0.879759,1.21224 1.231749,1.48311 2.929183,2.32259 4.632764,3.20288 1.248367,0.54665 2.569763,0.88689 3.877143,1.26228 1.456751,0.38463 2.930456,0.66053 4.431922,0.80401 1.60398,0.17344 3.21138,0.32026 4.823938,0.3847 1.907226,0.10757 3.813578,0.24881 5.725525,0.18738 1.939716,-0.003 3.879491,-0.002 5.81913,0.0173 1.934308,0.0211 3.869118,0.0546 5.800164,0.17737 1.580348,0.0949 3.162533,0.1947 4.746212,0.19716 1.293707,5.3e-4 2.587416,-0.003 3.881115,-0.007 1.746983,-0.0103 3.493968,-0.0209 5.240993,-0.0144 2.100297,-0.005 4.200591,-0.0141 6.300899,-0.0122 2.241973,0.0122 4.483973,-0.005 6.72597,-0.005 2.489531,-0.003 4.979061,-0.002 7.468595,-0.002 2.444652,0.003 4.889302,5.2e-4 7.333942,0.004 2.29908,-0.002 4.59817,0.004 6.89723,0.009 2.04967,0.003 4.09932,-0.001 6.14899,-5.2e-4 2.09197,0.005 4.18394,0.001 6.27588,-0.0121 2.61767,-0.008 5.23533,-0.005 7.85301,-0.003 2.47321,0.005 4.94655,0.002 7.4196,-0.0299 2.53492,-0.0373 5.069,-0.10601 7.60357,-0.16008 2.70373,-0.011 5.40802,-0.0203 8.11023,-0.12221 2.85947,-0.11337 5.71585,-0.29683 8.57717,-0.36392 2.56857,-0.1218 5.13146,-0.33106 7.67666,-0.70736 1.8676,-0.31746 3.73837,-0.61798 5.59963,-0.97123 1.59259,-0.35262 3.14876,-0.8389 4.67944,-1.40266 1.20351,-0.4743 2.3943,-1.00573 3.48683,-1.70344 0.9844,-0.68829 1.8849,-1.46846 2.6269,-2.42084 0.76894,-1.01732 1.38002,-2.1368 1.74238,-3.36556 0.42092,-1.3646 0.57947,-2.78659 0.791,-4.19538 0.18886,-1.26188 0.28952,-2.535 0.35239,-3.80919 0.0766,-1.34683 0.14707,-2.6939 0.2356,-4.03979 0.10167,-1.17593 0.15039,-2.35657 0.31003,-3.52687 0.15516,-1.08336 0.24512,-2.17551 0.44237,-3.25254 0.25173,-1.28009 0.50848,-2.5589 0.82191,-3.82575 0.34438,-1.48369 0.71555,-2.96109 1.00272,-4.45758 0.39664,-1.75174 0.7136,-3.51987 1.12297,-5.26869 0.41061,-1.75551 0.86644,-3.5073 1.06102,-5.30395 0.21092,-1.89633 0.40419,-3.79459 0.53609,-5.69808 0.0998,-1.45994 0.20582,-2.91943 0.2605,-4.38198 0.0122,-1.18929 -7.9e-4,-2.37881 -0.0522,-3.56718 -0.0713,-1.44398 -0.13323,-2.89563 -0.44086,-4.31317 -0.25751,-1.25289 -0.57613,-2.49431 -0.90908,-3.72887 -0.30653,-1.1026 -0.61617,-2.20321 -1.00841,-3.27936 -0.42165,-1.02228 -0.85871,-2.05364 -1.50741,-2.95602 -0.25192,-0.33929 -0.43304,-0.59806 -0.7127,-0.91556 -0.46376,-0.52652 -1.0068,-0.97787 -1.52472,-1.44841 -0.69088,-0.57861 -1.4213,-1.10823 -2.1077,-1.69278 -0.71625,-0.52629 -1.43938,-1.04332 -2.18759,-1.52369 -0.97235,-0.6727 -1.93134,-1.36428 -2.92303,-2.00883 -1.55829,-0.90768 -3.09358,-1.86233 -4.7339,-2.61784 -0.79192,-0.34516 -1.5944,-0.67844 -2.42685,-0.91306 -0.99301,-0.26563 -1.99829,-0.47862 -3.00315,-0.69417 -1.08008,-0.24895 -2.16797,-0.51982 -3.28025,-0.55954 -1.17502,-0.0349 -2.35126,0.006 -3.52667,-0.0101 -1.2089,-0.006 -2.41791,-0.01 -3.62598,0.0464 -1.56604,0.0759 -3.1272,0.22607 -4.67592,0.47492 -1.79035,0.29836 -3.59018,0.54502 -5.39579,0.73043 -2.34838,0.22519 -4.7013,0.31126 -7.06075,0.26005 -2.42552,0.002 -4.85116,-0.003 -7.27649,-0.0355 -2.52923,-0.0363 -5.05785,-0.10776 -7.58734,-0.12544 -3.16732,0.0128 -6.33461,10e-4 -9.50193,-0.007 -2.59277,-0.0189 -5.18568,-0.003 -7.77849,-0.0224 -2.64056,-0.0168 -5.28105,-0.0473 -7.9207,-0.12271 -2.79342,-0.0741 -5.58779,-0.11024 -8.380147,-0.22171 -2.541714,-0.0966 -5.08455,-0.15876 -7.627934,-0.19038 -2.612208,1.6e-4 -5.224352,-0.008 -7.836559,-0.011 -2.329849,-0.003 -4.659701,-0.003 -6.989545,0.002 -2.608705,0.006 -5.217428,0.0129 -7.826137,0.005 -2.429193,-0.0117 -4.858269,-0.046 -7.286265,-0.12637 -1.891263,-0.0635 -3.782129,-0.10864 -5.67468,-0.0724 -2.223858,0.007 -4.447768,0.005 -6.671474,-0.0252 -1.63939,-0.0317 -3.277825,-0.091 -4.915977,-0.16189 -1.260062,-0.0361 -2.520648,-0.0302 -3.781155,-0.0329 -0.935138,-0.004 -1.870316,-0.0131 -2.805457,-0.005 -0.749919,0.01 -1.502209,0.0272 -2.245722,0.13444 -0.734573,0.12679 -1.469604,0.26296 -2.187744,0.46487 -0.777447,0.22656 -1.556645,0.46516 -2.276721,0.84284 -0.926161,0.46986 -1.80766,1.01668 -2.606136,1.68527 -0.353109,0.29684 -0.697925,0.57469 -1.026169,0.90032 -0.621139,0.61621 -1.144066,1.32281 -1.614426,2.05808 -0.482495,0.90076 -0.981174,1.79342 -1.36275,2.74384 -0.394668,1.00016 -0.771334,2.00783 -1.08216,3.03776 -0.376861,1.0999 -0.723777,2.21241 -0.935205,3.35781 -0.227517,1.24001 -0.407408,2.48761 -0.577898,3.73662 -0.17331,1.3851 -0.374281,2.76633 -0.573393,4.14789 -0.125699,0.95565 -0.260791,1.90877 -0.406815,2.86149 -0.09125,0.82607 -0.252552,1.64138 -0.332944,2.46887 -0.07519,0.88378 -0.217543,1.7567 -0.341303,2.63437 -0.122445,0.94715 -0.230703,1.89503 -0.408483,2.83423 -0.144996,0.87771 -0.28484,1.75699 -0.386743,2.64082 -0.06239,0.85446 -0.124223,1.70528 -0.08259,2.56308 0.01019,1.18982 0.02151,2.37968 0.01667,3.56955 0.0057,1.44733 0.0165,2.8947 0.0045,4.34203 -0.0075,1.0723 -0.0067,2.14519 -0.05166,3.21675 z"
    />
  </g>
</svg>
