<svg width="694" height="108" viewBox="0 0 694 108" fill="none" xmlns="http://www.w3.org/2000/svg">
<path d="M50.1283 2.60826L37.7443 4.72026L25.0723 8.08026L13.5523 11.4403L8.65633 15.3762L6.25633 18.3522L5.39233 21.1362L7.79233 25.3602L20.4643 29.5842L32.2723 33.8082L44.3683 38.6082L50.9923 42.2562L54.9283 45.6162L54.6403 48.8802L49.5523 54.9282L37.7443 61.005L23.8243 65.541L13.5523 66.1458L6.25633 65.2386L2.03234 63.1266L0.496338 60.1026" fill="white"/>
<path d="M50.1283 2.60826L37.7443 4.72026L25.0723 8.08026L13.5523 11.4403L8.65633 15.3762L6.25633 18.3522L5.39233 21.1362L7.79233 25.3602L20.4643 29.5842L32.2723 33.8082L44.3683 38.6082L50.9923 42.2562L54.9283 45.6162L54.6403 48.8802L49.5523 54.9282L37.7443 61.005L23.8243 65.541L13.5523 66.1458L6.25633 65.2386L2.03234 63.1266L0.496338 60.1026" stroke="black" stroke-width="0.992562" stroke-linecap="round" stroke-linejoin="round"/>
<path d="M50.1283 2.60826L37.7443 4.72026L25.0723 8.08026L13.5523 11.4403L8.65633 15.3762L6.25633 18.3522L5.39233 21.1362L7.79233 25.3602L20.4643 29.5842L32.2723 33.8082L44.3683 38.6082L50.9923 42.2562L54.9283 45.6162L54.6403 48.8802L49.5523 54.9282L37.7443 61.005L23.8243 65.541L13.5523 66.1458L6.25633 65.2386L2.03234 63.1266L0.496338 60.1026" stroke="black" stroke-opacity="0.2" stroke-width="0.992562" stroke-linecap="round" stroke-linejoin="round"/>
<path d="M87.5682 21.4243L75.4722 26.8003L69.1362 35.9203L64.9122 44.9442L67.0242 57.069L70.9602 63.7218L83.7282 65.8434L94.2882 63.1266L105.136 56.1762L111.184 44.9442L109.072 31.0243L104.272 25.6483L98.8002 22.2883L87.5682 21.4243Z" fill="white"/>
<path d="M87.5682 21.4243L75.4722 26.8003L69.1362 35.9203L64.9122 44.9442L67.0242 57.069L70.9602 63.7218L83.7282 65.8434L94.2882 63.1266L105.136 56.1762L111.184 44.9442L109.072 31.0243L104.272 25.6483L98.8002 22.2883L87.5682 21.4243Z" stroke="black" stroke-width="0.992562" stroke-linecap="round" stroke-linejoin="round"/>
<path d="M87.5682 21.4243L75.4722 26.8003L69.1362 35.9203L64.9122 44.9442L67.0242 57.069L70.9602 63.7218L83.7282 65.8434L94.2882 63.1266L105.136 56.1762L111.184 44.9442L109.072 31.0243L104.272 25.6483L98.8002 22.2883L87.5682 21.4243Z" stroke="black" stroke-opacity="0.2" stroke-width="0.992562" stroke-linecap="round" stroke-linejoin="round"/>
<path d="M117.808 24.1123L118.384 102.736L118.096 30.1603L129.04 24.1123L141.424 21.4243L155.344 23.5363L159.856 30.1603L158.992 40.4323L154.672 47.4403L145.936 54.9282L136.912 59.4978L118.768 64.029" fill="white"/>
<path d="M117.808 24.1123L118.384 102.736L118.096 30.1603L129.04 24.1123L141.424 21.4243L155.344 23.5363L159.856 30.1603L158.992 40.4323L154.672 47.4403L145.936 54.9282L136.912 59.4978L118.768 64.029" stroke="black" stroke-width="0.992562" stroke-linecap="round" stroke-linejoin="round"/>
<path d="M117.808 24.1123L118.384 102.736L118.096 30.1603L129.04 24.1123L141.424 21.4243L155.344 23.5363L159.856 30.1603L158.992 40.4323L154.672 47.4403L145.936 54.9282L136.912 59.4978L118.768 64.029" stroke="black" stroke-opacity="0.2" stroke-width="0.992562" stroke-linecap="round" stroke-linejoin="round"/>
<path d="M170.512 2.32029L169.552 32.2723L170.512 65.8434L172.912 40.4322L180.496 30.7363L189.232 25.3603L197.104 25.6483L202.48 30.1603L207.952 40.4322L208.912 50.4162L209.2 63.7218" fill="white"/>
<path d="M170.512 2.32029L169.552 32.2723L170.512 65.8434L172.912 40.4322L180.496 30.7363L189.232 25.3603L197.104 25.6483L202.48 30.1603L207.952 40.4322L208.912 50.4162L209.2 63.7218" stroke="black" stroke-width="0.992562" stroke-linecap="round" stroke-linejoin="round"/>
<path d="M170.512 2.32029L169.552 32.2723L170.512 65.8434L172.912 40.4322L180.496 30.7363L189.232 25.3603L197.104 25.6483L202.48 30.1603L207.952 40.4322L208.912 50.4162L209.2 63.7218" stroke="black" stroke-opacity="0.2" stroke-width="0.992562" stroke-linecap="round" stroke-linejoin="round"/>
<path d="M224.08 5.3923H225.808ZM226.48 23.5363L227.344 62.2146L229.168 64.029" fill="white"/>
<path d="M224.08 5.3923H225.808M226.48 23.5363L227.344 62.2146L229.168 64.029" stroke="black" stroke-width="0.992562" stroke-linecap="round" stroke-linejoin="round"/>
<path d="M224.08 5.3923H225.808M226.48 23.5363L227.344 62.2146L229.168 64.029" stroke="black" stroke-opacity="0.2" stroke-width="0.992562" stroke-linecap="round" stroke-linejoin="round"/>
<path d="M244.336 38.0322L256.432 37.7442L270.352 37.4562L279.376 35.9203L280.912 32.5603L279.664 29.2963L271.792 22.2883H261.808L252.784 25.6483L246.448 31.4083L241.84 43.1202L240.362 50.1282L240.064 54.9282L245.2 61.6098L253.648 65.8434L263.344 65.2386L273.616 62.8194L280.912 59.1906L283.6 55.8882" fill="white"/>
<path d="M244.336 38.0322L256.432 37.7442L270.352 37.4562L279.376 35.9203L280.912 32.5603L279.664 29.2963L271.792 22.2883H261.808L252.784 25.6483L246.448 31.4083L241.84 43.1202L240.362 50.1282L240.064 54.9282L245.2 61.6098L253.648 65.8434L263.344 65.2386L273.616 62.8194L280.912 59.1906L283.6 55.8882" stroke="black" stroke-width="0.992562" stroke-linecap="round" stroke-linejoin="round"/>
<path d="M244.336 38.0322L256.432 37.7442L270.352 37.4562L279.376 35.9203L280.912 32.5603L279.664 29.2963L271.792 22.2883H261.808L252.784 25.6483L246.448 31.4083L241.84 43.1202L240.362 50.1282L240.064 54.9282L245.2 61.6098L253.648 65.8434L263.344 65.2386L273.616 62.8194L280.912 59.1906L283.6 55.8882" stroke="black" stroke-opacity="0.2" stroke-width="0.992562" stroke-linecap="round" stroke-linejoin="round"/>
<path d="M331.312 3.56829L331.696 31.0243L332.848 48.0162L334.96 65.8434L350.416 64.6338L366.736 61.005L379.696 55.8882L388.816 50.1282L390.352 44.3682L388.24 38.3202L379.696 33.5203L370.672 32.2723L360.4 31.0243L348.592 31.9843L335.632 33.2323L354.064 28.3363L365.872 23.2483L374.032 18.3523L376.72 13.5523L376.144 8.36828L373.072 5.96829L365.488 2.60829L354.64 0.784293L343.792 0.496294L327.424 1.45629" fill="white"/>
<path d="M331.312 3.56829L331.696 31.0243L332.848 48.0162L334.96 65.8434L350.416 64.6338L366.736 61.005L379.696 55.8882L388.816 50.1282L390.352 44.3682L388.24 38.3202L379.696 33.5203L370.672 32.2723L360.4 31.0243L348.592 31.9843L335.632 33.2323L354.064 28.3363L365.872 23.2483L374.032 18.3523L376.72 13.5523L376.144 8.36828L373.072 5.96829L365.488 2.60829L354.64 0.784293L343.792 0.496294L327.424 1.45629" stroke="black" stroke-width="0.992562" stroke-linecap="round" stroke-linejoin="round"/>
<path d="M331.312 3.56829L331.696 31.0243L332.848 48.0162L334.96 65.8434L350.416 64.6338L366.736 61.005L379.696 55.8882L388.816 50.1282L390.352 44.3682L388.24 38.3202L379.696 33.5203L370.672 32.2723L360.4 31.0243L348.592 31.9843L335.632 33.2323L354.064 28.3363L365.872 23.2483L374.032 18.3523L376.72 13.5523L376.144 8.36828L373.072 5.96829L365.488 2.60829L354.64 0.784293L343.792 0.496294L327.424 1.45629" stroke="black" stroke-opacity="0.2" stroke-width="0.992562" stroke-linecap="round" stroke-linejoin="round"/>
<path d="M403.888 22.2883L401.488 36.2083L400.624 52.2403L404.272 61.6099L411.76 65.541L424.528 64.6338L431.728 60.1027L435.664 58.2787L439.6 52.8163L442.384 47.0563L440.176 21.1363L443.248 65.2386" fill="white"/>
<path d="M403.888 22.2883L401.488 36.2083L400.624 52.2403L404.272 61.6099L411.76 65.541L424.528 64.6338L431.728 60.1027L435.664 58.2787L439.6 52.8163L442.384 47.0563L440.176 21.1363L443.248 65.2386" stroke="black" stroke-width="0.992562" stroke-linecap="round" stroke-linejoin="round"/>
<path d="M403.888 22.2883L401.488 36.2083L400.624 52.2403L404.272 61.6099L411.76 65.541L424.528 64.6338L431.728 60.1027L435.664 58.2787L439.6 52.8163L442.384 47.0563L440.176 21.1363L443.248 65.2386" stroke="black" stroke-opacity="0.2" stroke-width="0.992562" stroke-linecap="round" stroke-linejoin="round"/>
<path d="M492.208 41.3922L485.872 52.2402L474.448 61.3026L461.968 65.8434H453.232L450.544 61.3026L454.192 49.8402L463.216 36.2082L473.488 27.7602L480.112 24.4003L486.832 25.3602L492.208 29.5842L493.744 72.4962L492.592 86.9922L489.232 96.1122L485.008 102.16L481.072 105.424L475.888 106.384L471.952 106.672L461.104 106.384" fill="white"/>
<path d="M492.208 41.3922L485.872 52.2402L474.448 61.3026L461.968 65.8434H453.232L450.544 61.3026L454.192 49.8402L463.216 36.2082L473.488 27.7602L480.112 24.4003L486.832 25.3602L492.208 29.5842L493.744 72.4962L492.592 86.9922L489.232 96.1122L485.008 102.16L481.072 105.424L475.888 106.384L471.952 106.672L461.104 106.384" stroke="black" stroke-width="0.992562" stroke-linecap="round" stroke-linejoin="round"/>
<path d="M492.208 41.3922L485.872 52.2402L474.448 61.3026L461.968 65.8434H453.232L450.544 61.3026L454.192 49.8402L463.216 36.2082L473.488 27.7602L480.112 24.4003L486.832 25.3602L492.208 29.5842L493.744 72.4962L492.592 86.9922L489.232 96.1122L485.008 102.16L481.072 105.424L475.888 106.384L471.952 106.672L461.104 106.384" stroke="black" stroke-opacity="0.2" stroke-width="0.992562" stroke-linecap="round" stroke-linejoin="round"/>
<path d="M500.694 23.2483L500.992 64.6338L500.694 35.3443L511.888 28.0483L522.736 22.8643L529.744 22.2883L534.832 22.8643L538.192 26.5123L540.592 37.0723L540.304 65.541" fill="white"/>
<path d="M500.694 23.2483L500.992 64.6338L500.694 35.3443L511.888 28.0483L522.736 22.8643L529.744 22.2883L534.832 22.8643L538.192 26.5123L540.592 37.0723L540.304 65.541" stroke="black" stroke-width="0.992562" stroke-linecap="round" stroke-linejoin="round"/>
<path d="M500.694 23.2483L500.992 64.6338L500.694 35.3443L511.888 28.0483L522.736 22.8643L529.744 22.2883L534.832 22.8643L538.192 26.5123L540.592 37.0723L540.304 65.541" stroke="black" stroke-opacity="0.2" stroke-width="0.992562" stroke-linecap="round" stroke-linejoin="round"/>
<path d="M589.936 39.8562L584.464 51.9522L575.632 60.1026L569.296 63.7218L563.248 65.8434L554.8 64.9314L550.288 61.917L549.04 52.5282L553.648 43.1202L559.6 34.0962L569.296 27.4722L576.592 24.1122H582.064L588.688 25.3602L589.936 29.8722L591.088 66.1458" fill="white"/>
<path d="M589.936 39.8562L584.464 51.9522L575.632 60.1026L569.296 63.7218L563.248 65.8434L554.8 64.9314L550.288 61.917L549.04 52.5282L553.648 43.1202L559.6 34.0962L569.296 27.4722L576.592 24.1122H582.064L588.688 25.3602L589.936 29.8722L591.088 66.1458" stroke="black" stroke-width="0.992562" stroke-linecap="round" stroke-linejoin="round"/>
<path d="M589.936 39.8562L584.464 51.9522L575.632 60.1026L569.296 63.7218L563.248 65.8434L554.8 64.9314L550.288 61.917L549.04 52.5282L553.648 43.1202L559.6 34.0962L569.296 27.4722L576.592 24.1122H582.064L588.688 25.3602L589.936 29.8722L591.088 66.1458" stroke="black" stroke-opacity="0.2" stroke-width="0.992562" stroke-linecap="round" stroke-linejoin="round"/>
<path d="M601.936 21.4243L600.784 64.9314L603.76 40.4323L611.056 31.0243L620.368 25.6483L627.952 22.5763L631.312 22.2883L641.296 23.2483L642.448 24.1123" fill="white"/>
<path d="M601.936 21.4243L600.784 64.9314L603.76 40.4323L611.056 31.0243L620.368 25.6483L627.952 22.5763L631.312 22.2883L641.296 23.2483L642.448 24.1123" stroke="black" stroke-width="0.992562" stroke-linecap="round" stroke-linejoin="round"/>
<path d="M601.936 21.4243L600.784 64.9314L603.76 40.4323L611.056 31.0243L620.368 25.6483L627.952 22.5763L631.312 22.2883L641.296 23.2483L642.448 24.1123" stroke="black" stroke-opacity="0.2" stroke-width="0.992562" stroke-linecap="round" stroke-linejoin="round"/>
<path d="M692.944 3.85636L691.504 29.2963L690.832 45.6163L691.504 58.8835L691.792 64.6339L691.216 48.8803L682.384 58.2787L668.176 64.6339L658.192 65.2387L651.28 61.3027L649.129 50.9923L654.256 41.0083L666.64 32.5603L677.872 30.7363L686.32 31.9843L691.792 37.7443" fill="white"/>
<path d="M692.944 3.85636L691.504 29.2963L690.832 45.6163L691.504 58.8835L691.792 64.6339L691.216 48.8803L682.384 58.2787L668.176 64.6339L658.192 65.2387L651.28 61.3027L649.129 50.9923L654.256 41.0083L666.64 32.5603L677.872 30.7363L686.32 31.9843L691.792 37.7443" stroke="black" stroke-width="0.992562" stroke-linecap="round" stroke-linejoin="round"/>
<path d="M692.944 3.85636L691.504 29.2963L690.832 45.6163L691.504 58.8835L691.792 64.6339L691.216 48.8803L682.384 58.2787L668.176 64.6339L658.192 65.2387L651.28 61.3027L649.129 50.9923L654.256 41.0083L666.64 32.5603L677.872 30.7363L686.32 31.9843L691.792 37.7443" stroke="black" stroke-opacity="0.2" stroke-width="0.992562" stroke-linecap="round" stroke-linejoin="round"/>
</svg>
